Coordinates
version=1
nRows=13
nColumns=63
inDegrees=yes

Units are S.I. units (second, meters, Newtons, ...)
If the header above contains a line with 'inDegrees', this indicates whether rotational values are in degrees (yes) or radians (no).

endheader
time	pelvis_tilt	pelvis_list	pelvis_rotation	pelvis_tx	pelvis_ty	pelvis_tz	hip_flexion_r	hip_adduction_r	hip_rotation_r	knee_angle_r	knee_angle_r_beta	ankle_angle_r	subtalar_angle_r	mtp_angle_r	hip_flexion_l	hip_adduction_l	hip_rotation_l	knee_angle_l	knee_angle_l_beta	ankle_angle_l	subtalar_angle_l	mtp_angle_l	L5_S1_Flex_Ext	L5_S1_Lat_Bending	L5_S1_axial_rotation	L4_L5_Flex_Ext	L4_L5_Lat_Bending	L4_L5_axial_rotation	L3_L4_Flex_Ext	L3_L4_Lat_Bending	L3_L4_axial_rotation	L2_L3_Flex_Ext	L2_L3_Lat_Bending	L2_L3_axial_rotation	L1_L2_Flex_Ext	L1_L2_Lat_Bending	L1_L2_axial_rotation	L1_T12_Flex_Ext	L1_T12_Lat_Bending	L1_T12_axial_rotation	Abs_r3	Abs_r2	Abs_r1	Abs_t1	Abs_t2	neck_flexion	neck_bending	neck_rotation	arm_flex_r	arm_add_r	arm_rot_r	elbow_flex_r	pro_sup_r	wrist_flex_r	wrist_dev_r	arm_flex_l	arm_add_l	arm_rot_l	elbow_flex_l	pro_sup_l	wrist_flex_l	wrist_dev_l
0.000000	2.102980	-2.036105	92.318038	0.109138	0.993869	0.186789	10.126007	-3.438954	-7.177605	16.468905	0.287437	23.632218	2.946742	0.000000	10.767902	0.257719	5.445645	20.985306	0.366263	20.873825	-11.797023	0.000000	0.369195	0.006108	0.709816	0.685631	0.008124	0.754179	0.606550	0.014851	0.754179	0.421953	0.014851	0.621089	0.342834	0.012455	0.576725	0.210958	0.009461	0.532362	2.637120	0.069094	3.947782	0.000000	0.000000	27.692041	5.835316	10.361605	12.277329	-7.915997	50.276510	47.065006	35.223115	-1.813001	10.115390	12.807459	-8.444311	55.095377	48.773997	73.221845	3.405527	3.936036
0.016949	1.580011	-2.113822	91.761536	0.110028	0.993822	0.186345	10.269305	-3.952833	-7.288232	16.502880	0.288030	23.381022	3.580678	0.000000	10.735644	0.654563	4.204854	20.513541	0.358029	20.928060	-10.971732	0.000000	0.398518	-0.053190	0.840710	0.740088	-0.070742	0.893254	0.654725	-0.129326	0.893254	0.455466	-0.129326	0.735621	0.370064	-0.108465	0.683077	0.227713	-0.082391	0.630532	2.846574	-0.601693	4.675776	0.000000	0.000000	27.823528	5.278509	9.728865	11.514212	-7.851440	49.377000	47.538195	36.371836	-2.572768	10.553805	12.871590	-8.725046	55.555593	49.124166	72.306765	3.137408	4.079328
0.033898	1.160783	-2.153211	91.257658	0.110774	0.993812	0.185852	10.346612	-4.354093	-7.313599	16.487351	0.287759	23.230563	4.127967	0.000000	10.643784	0.973858	3.198244	20.080358	0.350468	20.934255	-10.382090	0.000000	0.422552	-0.101816	0.958475	0.784722	-0.135416	1.018379	0.694211	-0.247556	1.018379	0.482935	-0.247556	0.838665	0.392382	-0.207624	0.778761	0.241446	-0.157713	0.718856	3.018248	-1.151766	5.330749	0.000000	0.000000	27.932414	4.732788	9.157121	10.872717	-7.825793	48.711756	47.927852	37.131107	-3.166382	10.973800	12.897708	-8.970640	55.960383	49.436877	71.497855	2.945263	4.294187
0.050847	0.835752	-2.157233	90.804809	0.111381	0.993839	0.185316	10.363717	-4.654308	-7.267671	16.429770	0.286754	23.171925	4.598471	0.000000	10.498165	1.223298	2.406946	19.683138	0.343536	20.898069	-10.005345	0.000000	0.441634	-0.140713	1.063820	0.820159	-0.187149	1.130309	0.725561	-0.342130	1.130309	0.504744	-0.342130	0.930843	0.410102	-0.286942	0.864354	0.252350	-0.217965	0.797865	3.154550	-1.591776	5.916650	0.000000	0.000000	28.020399	4.199539	8.640443	10.338936	-7.835100	48.253296	48.243959	37.550566	-3.610607	11.370418	12.890302	-9.183105	56.313109	49.712787	70.783583	2.827769	4.572914
0.067797	0.595370	-2.128851	90.401396	0.111859	0.993899	0.184739	10.326408	-4.865052	-7.164410	16.337592	0.285145	23.196192	5.002056	0.000000	10.304632	1.410574	1.812087	19.319265	0.337185	20.825160	-9.818747	0.000000	0.456101	-0.170822	1.157457	0.847025	-0.227193	1.229798	0.749329	-0.415337	1.229798	0.521278	-0.415337	1.012775	0.423536	-0.348340	0.940434	0.260616	-0.264603	0.868093	3.257885	-1.932373	6.437429	0.000000	0.000000	28.089182	3.680145	8.172900	9.898963	-7.875405	47.974138	48.496494	37.679852	-3.922208	11.738700	12.853865	-9.364453	56.617132	49.952555	70.152416	2.783604	4.907809
0.084746	0.430093	-2.071024	90.045824	0.112214	0.993990	0.184127	10.240474	-4.997899	-7.017781	16.218269	0.283062	23.294449	5.348584	0.000000	10.069031	1.543380	1.394798	18.986121	0.331370	20.721186	-9.799545	0.000000	0.466290	-0.193084	1.240094	0.865946	-0.256802	1.317600	0.766067	-0.469465	1.317600	0.532922	-0.469465	1.085083	0.432996	-0.393737	1.007577	0.266438	-0.299087	0.930071	3.330659	-2.184207	6.897033	0.000000	0.000000	28.140465	3.175990	7.748563	9.538890	-7.942752	47.846801	48.695439	37.568602	-4.117951	12.073691	12.792887	-9.516697	56.875815	50.156839	69.592821	2.811445	5.291174
0.101695	0.330375	-1.986715	89.736501	0.112455	0.994111	0.183484	10.111704	-5.064423	-6.841745	16.079256	0.280636	23.457781	5.647919	0.000000	9.797205	1.629408	1.136207	18.681087	0.326046	20.591805	-9.924987	0.000000	0.472536	-0.208441	1.312443	0.877547	-0.277227	1.394470	0.776330	-0.506804	1.394470	0.540062	-0.506804	1.148387	0.438797	-0.425054	1.066360	0.270007	-0.322876	0.984332	3.375280	-2.357931	7.299412	0.000000	0.000000	28.175946	2.688457	7.361503	9.244811	-8.033183	47.843802	48.850773	37.266455	-4.214599	12.370432	12.711861	-9.641847	57.092518	50.326296	69.093267	2.909970	5.715308
0.118644	0.286669	-1.878884	89.471832	0.112589	0.994260	0.182815	9.945886	-5.076197	-6.650267	15.928004	0.277996	23.677272	5.909925	0.000000	9.494999	1.676351	1.017444	18.401547	0.321168	20.442676	-10.172324	0.000000	0.475179	-0.217835	1.375211	0.882454	-0.289721	1.461162	0.780671	-0.529644	1.461162	0.543082	-0.529644	1.203310	0.441251	-0.444209	1.117359	0.271517	-0.337426	1.031409	3.394154	-2.464193	7.648514	0.000000	0.000000	28.197327	2.218931	7.005790	9.002820	-8.142744	47.937659	48.972478	36.823048	-4.228918	12.623966	12.615277	-9.741917	57.270605	50.461583	68.642220	3.077856	6.172513
0.135593	0.289429	-1.750492	89.250224	0.112623	0.994434	0.182124	9.748809	-5.044796	-6.457309	15.771969	0.275273	23.944007	6.144466	0.000000	9.168258	1.691901	1.019638	18.144881	0.316688	20.279456	-10.518803	0.000000	0.474553	-0.222207	1.429111	0.881293	-0.295535	1.518431	0.779644	-0.540273	1.518431	0.542367	-0.540273	1.250472	0.440670	-0.453124	1.161153	0.271160	-0.344198	1.071833	3.389687	-2.513645	7.948288	0.000000	0.000000	28.206307	1.768794	6.675494	8.799009	-8.267478	48.100892	49.070533	36.288020	-4.177671	12.829335	12.507626	-9.818917	57.413435	50.563360	68.228148	3.313780	6.655089
0.152542	0.329111	-1.604502	89.070083	0.112566	0.994632	0.181415	9.526262	-4.981793	-6.276835	15.618602	0.272596	24.249071	6.361405	0.000000	8.822826	1.683751	1.123918	17.908473	0.312562	20.107805	-10.941674	0.000000	0.470997	-0.222498	1.474852	0.874689	-0.295922	1.567030	0.773801	-0.540981	1.567030	0.538303	-0.540981	1.290495	0.437368	-0.453717	1.198317	0.269128	-0.344649	1.106139	3.364285	-2.516938	8.202683	0.000000	0.000000	28.204587	1.339432	6.364685	8.619471	-8.403429	48.306018	49.154920	35.711009	-4.077625	12.981581	12.393400	-9.874860	57.524372	50.632282	67.839518	3.616421	7.155336
0.169492	0.396168	-1.443873	88.929816	0.112425	0.994851	0.180693	9.284032	-4.898762	-6.122808	15.475358	0.270096	24.583547	6.570605	0.000000	8.464548	1.659593	1.311413	17.689704	0.308744	19.933380	-11.418186	0.000000	0.464847	-0.219650	1.513143	0.863267	-0.292134	1.607714	0.763697	-0.534056	1.607714	0.531274	-0.534056	1.324000	0.431657	-0.447910	1.229429	0.265614	-0.340237	1.134857	3.320356	-2.484721	8.415647	0.000000	0.000000	28.193866	0.932228	6.067434	8.450300	-8.546641	48.525556	49.235617	35.141653	-3.945543	13.075749	12.277090	-9.911757	57.606777	50.669009	67.464798	3.984455	7.665556
0.186441	0.482220	-1.304254	88.837993	0.112151	0.995070	0.179862	9.050919	-4.815601	-6.068018	15.348899	0.267889	24.948623	6.863932	0.000000	8.127567	1.627925	1.549543	17.484683	0.305165	19.736691	-11.926103	0.000000	0.459935	-0.211652	1.526679	0.854145	-0.281497	1.622096	0.755627	-0.514610	1.622096	0.525660	-0.514610	1.335844	0.427096	-0.431600	1.240426	0.262807	-0.327849	1.145009	3.285269	-2.394247	8.490929	0.000000	0.000000	28.180801	0.607502	5.962743	8.298635	-8.691018	48.762794	49.358111	35.039627	-3.835286	13.020052	12.063712	-9.936322	57.482952	50.701578	66.832356	4.463853	8.244229
0.203390	0.562590	-1.140361	88.789510	0.111820	0.995312	0.179094	8.803819	-4.753029	-6.092828	15.262292	0.266377	25.359522	7.162968	0.000000	7.777800	1.618936	1.905654	17.270230	0.301422	19.535683	-12.506844	0.000000	0.451536	-0.205464	1.543242	0.838548	-0.273267	1.639695	0.741829	-0.499565	1.639695	0.516061	-0.499565	1.350337	0.419297	-0.418982	1.253884	0.258008	-0.318263	1.157431	3.225278	-2.324247	8.583049	0.000000	0.000000	28.160086	0.279424	5.695086	8.081146	-8.831366	48.881534	49.498542	34.972457	-3.751568	12.919872	11.927312	-9.940590	57.434714	50.663074	66.387945	5.027819	8.806142
